<svg role="img" viewBox="0 0 256 256" xmlns="http://www.w3.org/2000/svg" id="Puppeteer--Streamline-Simple-Icons" height="256" width="256">
  <desc>
    Puppeteer Streamline Icon: https://streamlinehq.com
  </desc>
  <title>Puppeteer</title>
  <path d="M190.82666666666665 190.50666666666666h4.234666666666667v1.8559999999999999h0.29866666666666664a4.970666666666666 4.970666666666666 0 0 1 6.602666666666666 -1.6533333333333333l-1.1733333333333333 3.9786666666666664a3.8826666666666663 3.8826666666666663 0 0 0 -1.9626666666666666 -0.4586666666666666 3.0719999999999996 3.0719999999999996 0 0 0 -2.5919999999999996 1.1733333333333333 5.023999999999999 5.023999999999999 0 0 0 -0.8746666666666667 3.093333333333333v6.773333333333333h-4.522666666666666zm-2.7733333333333334 11.178666666666667a8.170666666666666 8.170666666666666 0 0 1 -2.88 2.986666666666667 7.904 7.904 0 0 1 -4.245333333333333 1.0773333333333333 8.767999999999999 8.767999999999999 0 0 1 -3.1999999999999997 -0.576 8.021333333333333 8.021333333333333 0 0 1 -2.5279999999999996 -1.6533333333333333 7.509333333333332 7.509333333333332 0 0 1 -2.2826666666666666 -5.642666666666667c0 -1.0666666666666667 0.19199999999999998 -2.0693333333333332 0.5973333333333333 -3.0079999999999996a7.6693333333333324 7.6693333333333324 0 0 1 1.664 -2.5066666666666664 7.7333333333333325 7.7333333333333325 0 0 1 5.642666666666667 -2.3466666666666667 8 8 0 0 1 3.221333333333333 0.5973333333333333 6.848 6.848 0 0 1 3.765333333333333 4.096 9.024 9.024 0 0 1 0.3946666666666666 4.288h-10.879999999999999c0.21333333333333332 0.96 0.6719999999999999 1.664 1.3546666666666667 2.112a4.128 4.128 0 0 0 2.2826666666666666 0.6613333333333333 3.6799999999999997 3.6799999999999997 0 0 0 3.413333333333333 -1.92zm-4.010666666666666 -5.76a2.421333333333333 2.421333333333333 0 0 0 -0.31999999999999995 -0.7893333333333332 2.2399999999999998 2.2399999999999998 0 0 0 -0.6186666666666667 -0.7466666666666667 2.816 2.816 0 0 0 -0.992 -0.576 3.466666666666667 3.466666666666667 0 0 0 -4.586666666666666 2.112zm-13.248 5.76a8.170666666666666 8.170666666666666 0 0 1 -2.88 2.986666666666667 7.904 7.904 0 0 1 -4.234666666666667 1.0773333333333333 8.767999999999999 8.767999999999999 0 0 1 -3.1999999999999997 -0.576 8.021333333333333 8.021333333333333 0 0 1 -2.5279999999999996 -1.6533333333333333 7.509333333333332 7.509333333333332 0 0 1 -2.293333333333333 -5.642666666666667c0 -1.0666666666666667 0.20266666666666666 -2.0693333333333332 0.608 -3.0079999999999996a7.6693333333333324 7.6693333333333324 0 0 1 1.6533333333333333 -2.5066666666666664 7.7333333333333325 7.7333333333333325 0 0 1 5.642666666666667 -2.3466666666666667c1.2266666666666666 0 2.293333333333333 0.19199999999999998 3.221333333333333 0.5973333333333333a6.848 6.848 0 0 1 3.765333333333333 4.096 9.024 9.024 0 0 1 0.3946666666666666 4.288h-10.879999999999999c0.21333333333333332 0.96 0.6719999999999999 1.664 1.3546666666666667 2.112a4.128 4.128 0 0 0 2.293333333333333 0.6613333333333333 3.6799999999999997 3.6799999999999997 0 0 0 3.413333333333333 -1.92zm-4.010666666666666 -5.76a2.421333333333333 2.421333333333333 0 0 0 -0.29866666666666664 -0.7893333333333332 2.2399999999999998 2.2399999999999998 0 0 0 -0.6399999999999999 -0.7466666666666667 2.816 2.816 0 0 0 -0.992 -0.576 3.466666666666667 3.466666666666667 0 0 0 -4.586666666666666 2.112zm-20.458666666666666 -1.5359999999999998 -2.5919999999999996 -0.042666666666666665 0.042666666666666665 -4.1386666666666665 2.6666666666666665 0.128 -0.07466666666666666 -4.373333333333333 4.394666666666666 0.042666666666666665 -0.17066666666666666 4.16 3.9146666666666663 0.21333333333333332 -0.128 3.786666666666666 -3.893333333333333 0.08533333333333333 0.13866666666666666 5.013333333333333c-0.128 0.9813333333333333 0.23466666666666663 1.5466666666666664 0.288 2.0693333333333332 0.8533333333333333 1.0666666666666667 1.4613333333333334 0.7253333333333334 1.4613333333333334 0.7253333333333334 0.21333333333333332 -0.08533333333333333 1.728 -0.288 1.888 -0.4053333333333333l0.42666666666666664 4.1386666666666665c-1.472 0.8746666666666667 -4.021333333333333 0.38399999999999995 -4.021333333333333 0.38399999999999995 -2.6986666666666665 -0.3946666666666666 -4.085333333333333 -2.3146666666666667 -4.096 -3.125333333333333 -0.26666666666666666 -0.7253333333333334 -0.19199999999999998 -2.2399999999999998 -0.30933333333333335 -3.093333333333333zm-4.394666666666666 7.648c-0.3946666666666666 1.3439999999999999 -1.8346666666666664 2.325333333333333 -3.0186666666666664 3.0399999999999996a8.234666666666666 8.234666666666666 0 0 1 -4.330666666666667 1.1733333333333333 10.069333333333333 10.069333333333333 0 0 1 -3.413333333333333 -0.8213333333333332c-0.96 -0.4053333333333333 -1.76 -1.2053333333333334 -2.485333333333333 -1.92 -0.7253333333333334 -0.6933333333333334 -0.992 -1.5146666666666664 -1.3973333333333333 -2.453333333333333a8.767999999999999 8.767999999999999 0 0 1 -0.48 -3.3066666666666666c-0.15999999999999998 -2.0693333333333332 1.3439999999999999 -4.032 2.261333333333333 -5.386666666666667 2.986666666666667 -2.5386666666666664 5.226666666666667 -2.3466666666666667 5.226666666666667 -2.3466666666666667 4.128 -0.7999999999999999 7.4239999999999995 3.0719999999999996 7.658666666666666 4.661333333333333 0.31999999999999995 0.9173333333333332 0.23466666666666663 1.92 0.23466666666666663 2.986666666666667 -0.05333333333333333 0.576 0 0.5333333333333333 -0.33066666666666666 1.3333333333333333h-11.061333333333332c0.21333333333333332 0.96 0.6719999999999999 2.048 1.1093333333333333 2.5599999999999996 0.512 0.6399999999999999 1.3653333333333333 0.6399999999999999 2.2079999999999997 0.6399999999999999 0.8426666666666667 0 1.7386666666666666 0.021333333333333333 2.2826666666666666 -0.3413333333333333 0.5653333333333332 -0.3626666666666667 1.8346666666666664 -0.7679999999999999 2.1653333333333333 -1.3333333333333333zm-3.9466666666666663 -5.952a4.373333333333333 4.373333333333333 0 0 0 -0.42666666666666664 -1.0346666666666666c-0.14933333333333332 -0.2773333333333333 -0.5333333333333333 -0.49066666666666664 -0.8106666666666666 -0.704 -0.256 -0.24533333333333332 -0.7573333333333332 -0.3946666666666666 -1.1626666666666665 -0.5333333333333333a3.3066666666666666 3.3066666666666666 0 0 0 -1.2906666666666666 -0.24533333333333332 2.9226666666666667 2.9226666666666667 0 0 0 -1.792 0.5653333333333332c-0.608 0.3946666666666666 -1.0346666666666666 1.2799999999999998 -1.3119999999999998 2.0266666666666664zm-24.959999999999997 -3.968h0.29866666666666664a4.1386666666666665 4.1386666666666665 0 0 1 1.5679999999999998 -1.472 5.311999999999999 5.311999999999999 0 0 1 2.7093333333333334 -0.6399999999999999 6.645333333333333 6.645333333333333 0 0 1 4.981333333333334 2.2079999999999997 7.4239999999999995 7.4239999999999995 0 0 1 1.5679999999999998 2.474666666666667c0.38399999999999995 0.96 0.5653333333333332 2.0266666666666664 0.5653333333333332 3.1999999999999997a8.533333333333333 8.533333333333333 0 0 1 -0.5653333333333332 3.1999999999999997 7.776 7.776 0 0 1 -1.5679999999999998 2.496 6.9013333333333335 6.9013333333333335 0 0 1 -4.981333333333334 2.1653333333333333 5.525333333333333 5.525333333333333 0 0 1 -2.7093333333333334 -0.5973333333333333 4.362666666666666 4.362666666666666 0 0 1 -1.5679999999999998 -1.5146666666666664h-0.29866666666666664l0.29866666666666664 2.112v6.0266666666666655H108.79999999999998V190.50666666666666h4.224zm3.584 2.112a3.626666666666667 3.626666666666667 0 0 0 -3.3066666666666666 2.144 3.9466666666666663 3.9466666666666663 0 0 0 -0.2773333333333333 1.5039999999999998c0 0.5653333333333332 0.08533333333333333 1.0773333333333333 0.26666666666666666 1.5466666666666664a3.861333333333333 3.861333333333333 0 0 0 0.7893333333333332 1.1413333333333333c0.3413333333333333 0.29866666666666664 0.7253333333333334 0.5333333333333333 1.1413333333333333 0.7253333333333334a4.032 4.032 0 0 0 2.7413333333333334 0 3.7119999999999997 3.7119999999999997 0 0 0 1.152 -0.7253333333333334 3.2426666666666666 3.2426666666666666 0 0 0 0.7786666666666666 -1.1413333333333333 3.818666666666666 3.818666666666666 0 0 0 0.29866666666666664 -1.5466666666666664 3.6053333333333333 3.6053333333333333 0 0 0 -3.584 -3.648zm-21.610666666666663 -2.112h0.31999999999999995a4.1386666666666665 4.1386666666666665 0 0 1 1.5573333333333332 -1.472 5.311999999999999 5.311999999999999 0 0 1 2.7093333333333334 -0.6399999999999999 6.645333333333333 6.645333333333333 0 0 1 4.970666666666666 2.2079999999999997 7.4239999999999995 7.4239999999999995 0 0 1 1.5679999999999998 2.474666666666667c0.38399999999999995 0.96 0.576 2.0266666666666664 0.576 3.1999999999999997a8.533333333333333 8.533333333333333 0 0 1 -0.576 3.1999999999999997 7.776 7.776 0 0 1 -1.5679999999999998 2.496 6.9013333333333335 6.9013333333333335 0 0 1 -4.970666666666666 2.1653333333333333 5.525333333333333 5.525333333333333 0 0 1 -2.7093333333333334 -0.5973333333333333 4.362666666666666 4.362666666666666 0 0 1 -1.5679999999999998 -1.5146666666666664h-0.30933333333333335l0.31999999999999995 2.112v6.0266666666666655H90.77333333333333V190.50666666666666h4.213333333333333zm3.594666666666667 2.112a3.626666666666667 3.626666666666667 0 0 0 -3.3066666666666666 2.144 3.9466666666666663 3.9466666666666663 0 0 0 -0.288 1.5039999999999998c0 0.5653333333333332 0.10666666666666666 1.0773333333333333 0.2773333333333333 1.5466666666666664a3.861333333333333 3.861333333333333 0 0 0 0.7786666666666666 1.1413333333333333c0.3413333333333333 0.29866666666666664 0.7253333333333334 0.5333333333333333 1.152 0.7253333333333334a4.032 4.032 0 0 0 2.7413333333333334 0 3.7119999999999997 3.7119999999999997 0 0 0 1.1413333333333333 -0.7253333333333334 3.2319999999999998 3.2319999999999998 0 0 0 0.7893333333333332 -1.1413333333333333 3.818666666666666 3.818666666666666 0 0 0 0.29866666666666664 -1.5466666666666664 3.6053333333333333 3.6053333333333333 0 0 0 -2.2399999999999998 -3.3706666666666667 3.413333333333333 3.413333333333333 0 0 0 -1.3439999999999999 -0.2773333333333333zm-15.285333333333334 9.173333333333332h-0.29866666666666664a5.013333333333333 5.013333333333333 0 0 1 -4.522666666666666 2.3466666666666667c-1.8559999999999999 0 -3.2319999999999998 -0.5866666666666667 -4.128 -1.7813333333333334a7.498666666666666 7.498666666666666 0 0 1 -1.3653333333333333 -4.672v-8.799999999999999h4.522666666666666v8.288c0 0.8106666666666666 0.19199999999999998 1.472 0.576 1.9946666666666666 0.38399999999999995 0.5013333333333333 0.9706666666666666 0.7466666666666667 1.7813333333333334 0.7466666666666667a2.6133333333333333 2.6133333333333333 0 0 0 2.3146666666666667 -1.1733333333333333 5.301333333333333 5.301333333333333 0 0 0 0.8213333333333332 -3.0719999999999996v-6.784h4.522666666666666v14.773333333333333H83.30666666666666zm-27.66933333333333 1.8666666666666665V183.67999999999998h7.722666666666666a8.746666666666666 8.746666666666666 0 0 1 3.0399999999999996 0.512 7.221333333333334 7.221333333333334 0 0 1 2.453333333333333 1.4506666666666668 6.282666666666666 6.282666666666666 0 0 1 1.5999999999999999 2.197333333333333 7.1466666666666665 7.1466666666666665 0 0 1 0.5653333333333332 2.88 7.008 7.008 0 0 1 -0.576 2.848 6.581333333333333 6.581333333333333 0 0 1 -4.042666666666666 3.648 8.725333333333332 8.725333333333332 0 0 1 -3.0399999999999996 0.512h-3.0186666666666664v7.541333333333332zm7.872 -12c0.9813333333333333 0 1.7066666666666666 -0.24533333333333332 2.197333333333333 -0.7253333333333334a2.496 2.496 0 0 0 0.7253333333333334 -1.8346666666666664 2.496 2.496 0 0 0 -0.7253333333333334 -1.845333333333333c-0.48 -0.48 -1.216 -0.7253333333333334 -2.197333333333333 -0.7253333333333334h-3.1679999999999997v5.119999999999999zM192.42666666666665 29.418666666666667l-6.335999999999999 0.5333333333333333 2.517333333333333 31.274666666666665 6.677333333333333 3.872zm-128.17066666666665 0.10666666666666666L61.09866666666666 64.10666666666665l6.656 -3.1999999999999997 2.8373333333333335 -30.826666666666668zm-5.226666666666667 55.28533333333333 -0.46933333333333327 5.941333333333334 -13.301333333333334 33.46133333333333c-2.304 2.389333333333333 -3.285333333333333 5.482666666666667 -3.2746666666666666 8.799999999999999L41.92 243.62666666666667c0 7.136 5.226666666666667 12.373333333333331 12.351999999999999 12.373333333333331H200.74666666666667c7.1466666666666665 0 13.333333333333332 -4.736 13.333333333333332 -11.84V133.17333333333332c0 -3.264 -1.0666666666666667 -5.973333333333334 -3.0506666666666664 -8.256L196.69333333333333 82.64533333333333l-0.064 -0.7253333333333334 -6.133333333333333 2.7413333333333334 2.848 35.519999999999996H62.35733333333333l2.5279999999999996 -27.893333333333334 2.4106666666666667 -6.271999999999999L65.52533333333332 85.33333333333333l0.021333333333333333 -0.31999999999999995zm139.86133333333333 24.959999999999997 3.445333333333333 10.527999999999999c-0.9386666666666665 -0.14933333333333332 -1.6853333333333333 -0.064 -2.6133333333333333 -0.10666666666666666zm-142.03733333333332 2.474666666666667 -0.896 7.936c-0.6186666666666667 -0.05333333333333333 -1.2799999999999998 0.05333333333333333 -1.8346666666666664 0.07466666666666666zm-1.92 12.095999999999998 145.81333333333333 0.08533333333333333c5.013333333333333 0 9.098666666666666 3.669333333333333 9.098666666666666 8.693333333333332v8.490666666666666H46.005333333333326v-8.490666666666666c0 -5.013333333333333 3.8826666666666663 -8.778666666666666 8.927999999999999 -8.778666666666666zm1.44 5.898666666666667a2.88 2.88 0 0 0 -2.9013333333333335 2.88c0 3.84 5.781333333333333 3.84 5.781333333333333 0a2.88 2.88 0 0 0 -2.88 -2.88zm9.813333333333333 0c-3.84 0 -3.84 5.76 0 5.76s3.861333333333333 -5.76 0.021333333333333333 -5.76zm9.557333333333332 0c-4.16 -0.3626666666666667 -4.16 6.101333333333333 0 5.738666666666667 3.52 -0.29866666666666664 3.52 -5.4399999999999995 0 -5.738666666666667zm-29.738666666666663 15.189333333333332h163.83999999999997v97.632c0 6.346666666666666 -4.053333333333333 9.024 -9.098666666666666 9.013333333333332l-145.79199999999997 -0.042666666666666665a8.831999999999999 8.831999999999999 0 0 1 -8.959999999999999 -8.970666666666666zm20.08533333333333 47.14666666666666c0.7466666666666667 -1.248 0.7466666666666667 -1.1733333333333333 0.7253333333333334 -1.984 -0.08533333333333333 -0.7786666666666666 -0.042666666666666665 -0.8106666666666666 -0.5653333333333332 -1.44 -0.576 -0.576 -1.3119999999999998 -1.472 -2.1333333333333333 -1.4293333333333333h-4.128l-0.21333333333333332 5.866666666666667h4.341333333333333c1.3013333333333332 -0.021333333333333333 1.7066666666666666 -0.896 1.9733333333333332 -1.0026666666666666zm-1.9733333333333332 -8.853333333333332a6.186666666666666 6.186666666666666 0 0 1 4.714666666666666 1.824c1.1733333333333333 1.248 1.7493333333333334 2.912 1.7493333333333334 4.96a6.933333333333334 6.933333333333334 0 0 1 -1.7066666666666666 4.928c-1.248 1.2799999999999998 -2.8053333333333335 2.2399999999999998 -4.586666666666666 2.1653333333333333l-4.266666666666667 0.08533333333333333 -0.042666666666666665 8.256 -4.394666666666666 -0.13866666666666666 -0.05333333333333333 -22.272zm19.12533333333333 13.44 -0.128 -6.656 3.904 -0.042666666666666665 0.042666666666666665 15.306666666666667 -3.84 0.042666666666666665v-1.3013333333333332a6.207999999999999 6.207999999999999 0 0 1 -4.608 1.5999999999999999 5.941333333333334 5.941333333333334 0 0 1 -4.405333333333333 -1.664c-1.0986666666666665 -1.1733333333333333 -1.3866666666666667 -3.3066666666666666 -1.3119999999999998 -4.906666666666666l-0.042666666666666665 -9.034666666666666h3.968l-0.08533333333333333 8.213333333333333a3.498666666666667 3.498666666666667 0 0 0 0.7999999999999999 2.453333333333333 2.6666666666666665 2.6666666666666665 0 0 0 2.112 0.96c2.4 0 3.584 -1.664 3.584 -4.992zm19.25333333333333 0.8213333333333332a3.84 3.84 0 0 0 -1.1733333333333333 -2.9013333333333335c-0.7466666666666667 -0.7786666666666666 -1.2266666666666666 -1.2586666666666666 -2.325333333333333 -1.2266666666666666 -1.0666666666666667 0 -1.984 0.19199999999999998 -2.8373333333333335 1.0026666666666666a4.1386666666666665 4.1386666666666665 0 0 0 -1.2373333333333334 3.125333333333333c0 1.2799999999999998 0.4053333333333333 2.3146666666666667 1.248 3.093333333333333 0.7466666666666667 0.7786666666666666 1.792 1.216 2.88 1.216 1.0879999999999999 0.032 1.7706666666666666 -0.5653333333333332 2.5386666666666664 -1.3439999999999999 0.9279999999999999 -1.0026666666666666 0.6399999999999999 -2.2399999999999998 0.9066666666666667 -2.9653333333333336zm-2.7946666666666666 -8.106666666666666c1.877333333333333 0 3.552 1.1733333333333333 4.970666666666666 2.6133333333333333a7.573333333333332 7.573333333333332 0 0 1 2.1013333333333333 5.493333333333333 7.466666666666666 7.466666666666666 0 0 1 -2.1013333333333333 5.461333333333333c-0.992 1.7066666666666666 -3.3066666666666666 2.7199999999999998 -5.183999999999999 2.7093333333333334 -1.7066666666666666 0.05333333333333333 -3.84 -0.704 -4.565333333333333 -2.1013333333333333l0.042666666666666665 8.106666666666666 -4.266666666666667 0.064 -0.21333333333333332 -21.759999999999998 4.437333333333333 -0.21333333333333332v1.6746666666666665c1.3439999999999999 -1.0986666666666665 3.0399999999999996 -2.1333333333333333 4.778666666666666 -2.0586666666666664zm21.354666666666663 8.149333333333333c-0.14933333333333332 -1.7066666666666666 -0.46933333333333327 -2.1653333333333333 -1.248 -3.0186666666666664 -0.7679999999999999 -0.7893333333333332 -1.248 -0.9279999999999999 -2.3466666666666667 -0.9066666666666667 -1.0666666666666667 0 -1.8986666666666665 -0.05333333333333333 -2.7413333333333334 0.7466666666666667a4.1386666666666665 4.1386666666666665 0 0 0 -1.2373333333333334 3.1359999999999997c0 1.2799999999999998 0.4053333333333333 2.3146666666666667 1.2373333333333334 3.093333333333333 0.7466666666666667 0.7786666666666666 1.792 1.216 2.88 1.216 1.0879999999999999 0.032 1.6426666666666665 -0.6933333333333334 2.4106666666666667 -1.4613333333333334 0.7786666666666666 -0.8533333333333333 0.9173333333333332 -1.8666666666666665 1.0453333333333332 -2.8053333333333335zm-3.392 -8c1.888 0 4.149333333333333 1.024 5.568 2.453333333333333a7.594666666666666 7.594666666666666 0 0 1 2.112 5.504 7.466666666666666 7.466666666666666 0 0 1 -2.112 5.461333333333333c-1.1199999999999999 1.5999999999999999 -3.669333333333333 2.7199999999999998 -5.568 2.7093333333333334a5.066666666666666 5.066666666666666 0 0 1 -4.181333333333333 -2.1013333333333333v8l-4.32 0.10666666666666666 -0.24533333333333332 -21.695999999999998h4.565333333333333v1.4613333333333334c1.3439999999999999 -1.0986666666666665 2.453333333333333 -1.952 4.181333333333333 -1.888zm13.525333333333332 6.143999999999999 6.794666666666666 -0.08533333333333333c-0.18133333333333335 -0.7893333333333332 -0.6719999999999999 -1.2799999999999998 -1.3226666666666667 -1.7706666666666666a3.808 3.808 0 0 0 -4.330666666666667 0.032c-0.9066666666666667 0.7253333333333334 -0.576 0.5973333333333333 -1.1413333333333333 1.8133333333333335zm3.3386666666666667 -6.133333333333333c1.909333333333333 -0.032 4.533333333333333 0.832 5.888 2.1653333333333333 1.4186666666666667 1.3866666666666667 1.6746666666666665 3.285333333333333 1.7706666666666666 5.461333333333333l-0.33066666666666666 1.3333333333333333h-10.986666666666666c0.21333333333333332 1.0133333333333332 0.46933333333333327 1.984 1.1093333333333333 2.6026666666666665 0.6293333333333333 0.5973333333333333 1.632 0.7466666666666667 2.496 0.7466666666666667a5.333333333333333 5.333333333333333 0 0 0 4.085333333333333 -1.8133333333333335l3.3706666666666667 1.5039999999999998c-0.49066666666666664 1.4933333333333334 -1.9946666666666666 2.3786666666666667 -3.2426666666666666 3.157333333333333a8.074666666666666 8.074666666666666 0 0 1 -4.351999999999999 1.0026666666666666c-1.9626666666666666 0.032 -4.032 -1.2373333333333334 -5.4079999999999995 -2.6346666666666665a7.658666666666666 7.658666666666666 0 0 1 -2.1333333333333333 -5.578666666666667c0 -2.2399999999999998 1.0026666666666666 -4.074666666666666 2.453333333333333 -5.525333333333333 1.3866666666666667 -1.408 3.3066666666666666 -2.474666666666667 5.279999999999999 -2.421333333333333zm17.845333333333333 12.021333333333333c0.8533333333333333 -0.032 1.1733333333333333 0.021333333333333333 1.8986666666666665 -0.4053333333333333l0.42666666666666664 4.1386666666666665c-1.1413333333333333 0.6719999999999999 -1.44 0.4053333333333333 -2.7733333333333334 0.448a6.752 6.752 0 0 1 -4.437333333333333 -1.6533333333333333c-1.0026666666666666 -0.96 -1.0346666666666666 -2.7733333333333334 -1.0346666666666666 -4.725333333333333l-0.128 -5.4719999999999995 -2.5919999999999996 -0.042666666666666665 0.042666666666666665 -4.1386666666666665 2.6666666666666665 0.128 -0.07466666666666666 -4.373333333333333 4.394666666666666 0.042666666666666665 -0.17066666666666666 4.16 3.9146666666666663 0.21333333333333332 -0.128 3.786666666666666 -3.893333333333333 0.08533333333333333 0.032 5.4079999999999995c0.021333333333333333 1.6533333333333333 0.448 2.4 1.8666666666666665 2.4zm8 -5.76h6.976a3.413333333333333 3.413333333333333 0 0 0 -1.2799999999999998 -1.984 3.808 3.808 0 0 0 -4.341333333333333 0.032 3.1999999999999997 3.1999999999999997 0 0 0 -1.3546666666666667 1.9626666666666666zm3.6053333333333333 -6.261333333333333c1.9733333333333332 0 3.925333333333333 0.9813333333333333 5.333333333333333 2.3466666666666667 1.4186666666666667 1.3866666666666667 1.845333333333333 3.1466666666666665 1.952 5.333333333333333v1.2799999999999998h-10.986666666666666a4.266666666666667 4.266666666666667 0 0 0 1.2799999999999998 2.432 3.3066666666666666 3.3066666666666666 0 0 0 2.325333333333333 0.9173333333333332c1.6533333333333333 0 3.1679999999999997 -0.6399999999999999 3.9146666666666663 -1.92l3.1999999999999997 1.5999999999999999c-0.5333333333333333 1.3866666666666667 -1.2799999999999998 2.0266666666666664 -2.5386666666666664 2.7946666666666666a10.218666666666666 10.218666666666666 0 0 1 -4.8213333333333335 1.3333333333333333 7.594666666666666 7.594666666666666 0 0 1 -5.354666666666667 -2.389333333333333 8.213333333333333 8.213333333333333 0 0 1 -2.2186666666666666 -5.781333333333333c0 -2.2399999999999998 1.1306666666666665 -4.074666666666666 2.5599999999999996 -5.525333333333333 1.408 -1.408 3.3706666666666667 -2.474666666666667 5.333333333333333 -2.421333333333333zm13.546666666666667 6.261333333333333h6.976a3.413333333333333 3.413333333333333 0 0 0 -1.2799999999999998 -1.984 3.808 3.808 0 0 0 -4.341333333333333 0.032 3.1999999999999997 3.1999999999999997 0 0 0 -1.3546666666666667 1.9626666666666666zm3.594666666666667 -6.261333333333333a7.893333333333333 7.893333333333333 0 0 1 5.333333333333333 2.3466666666666667c1.4293333333333333 1.3866666666666667 1.8559999999999999 3.1466666666666665 1.9626666666666666 5.333333333333333v1.2799999999999998h-10.986666666666666a4.266666666666667 4.266666666666667 0 0 0 1.2799999999999998 2.432 3.3066666666666666 3.3066666666666666 0 0 0 2.3146666666666667 0.9173333333333332c1.6426666666666665 0 3.1679999999999997 -0.6399999999999999 3.925333333333333 -1.92l3.1999999999999997 1.5999999999999999c-0.5333333333333333 1.3866666666666667 -1.2799999999999998 2.0266666666666664 -2.5386666666666664 2.7946666666666666a10.207999999999998 10.207999999999998 0 0 1 -4.842666666666666 1.3333333333333333 7.605333333333332 7.605333333333332 0 0 1 -5.333333333333333 -2.389333333333333 8.213333333333333 8.213333333333333 0 0 1 -2.2186666666666666 -5.781333333333333c0 -2.2399999999999998 1.1306666666666665 -4.074666666666666 2.5599999999999996 -5.525333333333333 1.3866666666666667 -1.408 3.36 -2.474666666666667 5.333333333333333 -2.421333333333333zm20.671999999999997 0.42666666666666664 -0.7146666666666667 3.8826666666666663 -1.92 -0.24533333333333332c-3.4346666666666668 0 -3.84 2.2079999999999997 -3.84 6.346666666666666v5.226666666666667l-4.192 0.05333333333333333 0.08533333333333333 -15.253333333333332h3.893333333333333l-0.042666666666666665 2.3466666666666667c1.5466666666666664 -1.8133333333333335 2.293333333333333 -3.0506666666666664 6.72 -2.3466666666666667zM187.04 84.37333333333333l0.21333333333333332 -3.904 14.047999999999998 -7.328 0.07466666666666666 4.224zM53.76 72.96l14.4 7.253333333333334 -0.08533333333333333 4.192 -14.016 -6.933333333333334zm76.90666666666667 -18.645333333333333 51.616 26.112v4.181333333333333l-51.744 -26.24zM73.32266666666666 80.10666666666665l52.202666666666666 -25.813333333333333 -0.07466666666666666 3.989333333333333 -52.19199999999999 26.069333333333333zm36.98133333333333 -42.38933333333333L57.792 11.722666666666665 70.82666666666665 5.269333333333333l57.088 29.269333333333336L184.90666666666667 4.970666666666666l13.407999999999998 6.933333333333334 -52.544 26.432000000000002c-2.0906666666666665 1.0453333333333332 -1.3866666666666667 4.1386666666666665 0.7146666666666667 5.183999999999999l51.605333333333334 25.813333333333333 -13.013333333333332 6.634666666666666 -57.09866666666666 -28.768L70.61333333333333 76.04266666666666l-13.578666666666665 -6.762666666666666 53.312 -26.485333333333333a2.8373333333333335 2.8373333333333335 0 0 0 -0.042666666666666665 -5.087999999999999zM53.962666666666664 20.138666666666666l0.07466666666666666 -4.021333333333333 49.141333333333336 24.27733333333333 -3.7119999999999997 2.1333333333333333zm102.91199999999999 22.154666666666664 -4.373333333333333 -1.9626666666666666 49.024 -24.56533333333333 -0.29866666666666664 4.394666666666666zm4.501333333333333 3.264 43.98933333333333 -22.08a1.3226666666666667 1.3226666666666667 0 0 0 0.7466666666666667 -1.1733333333333333v-10.453333333333333c0 -0.49066666666666664 -0.08533333333333333 -1.4506666666666668 -0.5333333333333333 -1.6746666666666665l-20.69333333333333 -10.026666666666666a1.3226666666666667 1.3226666666666667 0 0 0 -1.2053333333333334 0l-55.114666666666665 27.97866666666667a1.3119999999999998 1.3119999999999998 0 0 1 -1.1733333333333333 0L71.24266666666666 0.15999999999999998a1.3226666666666667 1.3226666666666667 0 0 0 -1.1733333333333333 0L49.237333333333325 10.005333333333333c-0.42666666666666664 0.21333333333333332 -0.21333333333333332 1.1733333333333333 -0.21333333333333332 1.6746666666666665v10.613333333333333c0 0.5013333333333333 0.2773333333333333 0.96 0.7466666666666667 1.1733333333333333l44.16 21.834666666666667L50.02666666666667 66.54933333333332c-0.42666666666666664 0.21333333333333332 -1.152 0.6613333333333333 -1.1733333333333333 1.152l0.18133333333333335 11.029333333333334a1.3119999999999998 1.3119999999999998 0 0 0 0.7253333333333334 1.2053333333333334l20.618666666666666 10.517333333333333c0.3626666666666667 0.19199999999999998 1.3013333333333332 0.31999999999999995 1.6746666666666665 0.14933333333333332l55.31733333333333 -27.754666666666665a1.3226666666666667 1.3226666666666667 0 0 1 1.1733333333333333 0l54.61333333333333 27.765333333333334a1.3226666666666667 1.3226666666666667 0 0 0 1.1733333333333333 0l21.034666666666666 -10.175999999999998c0.448 -0.21333333333333332 1.0986666666666665 -0.5333333333333333 1.1093333333333333 -1.024l-0.07466666666666666 -11.018666666666665c0 -0.5013333333333333 -0.5013333333333333 -1.5999999999999999 -0.96 -1.8133333333333335z" fill="#000000" stroke-width="10.6667"></path>
</svg>