<svg width="161.19998779296876px" height="123.239990234375px" xmlns="http://www.w3.org/2000/svg" viewBox="169.40000610351564 13.3800048828125 161.19998779296876 123.239990234375" style="background: none;" preserveAspectRatio="xMidYMid"><defs><linearGradient id="editing-glowing-gradient" x1="0.8146601955249185" x2="0.18533980447508147" y1="0.8885729807284856" y2="0.11142701927151444"><stop offset="0" stop-color="#5699d2"></stop><stop offset="1" stop-color="#d8ebf9"></stop></linearGradient><filter id="editing-glowing" x="-100%" y="-100%" width="300%" height="300%"><feGaussianBlur in="SourceGraphic" result="blur" stdDeviation="10"></feGaussianBlur><feMerge><feMergeNode in="blur"></feMergeNode><feMergeNode in="SourceGraphic"></feMergeNode></feMerge></filter></defs><g filter="url(#editing-glowing)"><g transform="translate(200.01500153541565, 97.14499855041504)"><path d="M42.62-26.56L42.62-26.56L42.62-26.56Q42.62 0.70 13.06 0.70L13.06 0.70L13.06 0.70Q8.32 0.70 0.51-0.45L0.51-0.45L7.68-38.27L7.68-38.27Q8.19-40.83 8.51-42.30L8.51-42.30L8.51-42.30Q18.24-43.01 22.56-43.01L22.56-43.01L22.56-43.01Q26.88-43.01 30.85-42.11L30.85-42.11L30.85-42.11Q34.82-41.22 37.44-39.23L37.44-39.23L37.44-39.23Q42.62-35.33 42.62-26.56ZM29.44-28.93L29.44-28.93L29.44-28.93Q29.44-38.46 22.59-38.46L22.59-38.46L21.95-38.46L21.95-38.46Q21.63-38.46 21.31-38.40L21.31-38.40L14.72-4.03L14.72-4.03Q14.98-3.90 15.23-3.90L15.23-3.90L15.74-3.90L15.74-3.90Q18.11-3.90 20.58-5.38L20.58-5.38L20.58-5.38Q23.04-6.85 24.96-9.86L24.96-9.86L24.96-9.86Q29.44-16.83 29.44-28.93ZM51.33 0L43.97 0L55.55-42.24L68.93-42.24L71.87-18.11L83.78-42.24L94.98-42.24L96.13-10.62L96.13-10.62Q96.38-4.35 99.46-2.43L99.46-2.43L99.46-2.43Q98.75-1.15 96.70 0.06L96.70 0.06L96.70 0.06Q94.66 1.28 91.94 1.28L91.94 1.28L91.94 1.28Q89.22 1.28 87.62 0.51L87.62 0.51L87.62 0.51Q86.02-0.26 85.12-1.54L85.12-1.54L85.12-1.54Q83.52-3.84 83.52-8.26L83.52-8.26L83.52-28.03L70.91 0L62.98 0L58.50-28.74L51.33 0Z" fill="url(#editing-glowing-gradient)"></path></g></g><style>text {
  font-size: 64px;
  font-family: Arial Black;
  dominant-baseline: central;
  text-anchor: middle;
}</style></svg>